<?xml version="1.0" encoding="utf-8"?>
<!-- Generator: Adobe Illustrator 23.0.2, SVG Export Plug-In . SVG Version: 6.00 Build 0)  -->
<svg version="1.1" id="Layer_1" xmlns="http://www.w3.org/2000/svg" xmlns:xlink="http://www.w3.org/1999/xlink" x="0px" y="0px"
	 viewBox="0 0 757 273" style="enable-background:new 0 0 757 273;" xml:space="preserve">
<style type="text/css">
	.st0{fill:#044066;}
</style>
<g>
	<path class="st0" d="M99.36,128.62c14.59,0.74,35.08,1.75,35.04,14.86c0,14.94-17.11,18.48-35.47,18.48
		c-18.32-0.04-33.53-2.26-35.47-18.48h21.35c2.33,4.05,7.74,5.1,14.12,5.1c6.34,0,14.12-1.05,14.12-5.1c0-2.29-6.34-2.64-14.55-3.03
		c-14.59-0.74-35.08-1.75-35.04-14.82c0-14.94,17.11-18.51,35.47-18.51c18.32,0.12,33.53,2.18,35.47,18.51h-21.35
		c-2.33-4.12-7.74-5.1-14.12-5.1c-6.34,0-14.12,0.93-14.12,5.1C84.82,127.92,91.16,128.23,99.36,128.62z"/>
	<path class="st0" d="M209.39,132.63v3.81c0.08,19.76-16.02,25.48-35.67,25.51c-19.68-0.04-35.78-5.76-35.71-25.51v-3.81
		c-0.08-19.8,16.02-25.48,35.71-25.51C193.4,107.11,209.39,112.87,209.39,132.63z M189.01,133.87c0.12-8.52-6.96-10.07-15.29-10.19
		c-8.36,0.12-15.44,1.67-15.32,10.19v1.28c-0.12,8.56,6.96,10.11,15.32,10.23c8.32-0.12,15.4-1.67,15.29-10.23V133.87z"/>
	<path class="st0" d="M266.09,108.39h20.42v28.08c0.08,19.76-16.1,25.44-35.71,25.48c-19.6-0.04-35.78-5.72-35.71-25.48v-28.08
		h20.38v26.8c-0.08,8.6,6.96,10.07,15.32,10.19c8.32-0.12,15.4-1.59,15.29-10.19V108.39z"/>
	<path class="st0" d="M317.46,160.75v-35.71h-24.23v-16.57h68.84v16.57h-24.23v35.71H317.46z"/>
	<path class="st0" d="M389.25,142.82v17.85h-20.38v-52.27h20.38v17.85h30.61v-17.85h20.42v52.27h-20.42v-17.85H389.25z"/>
	<path class="st0" d="M483.09,128.62c14.58,0.74,35.08,1.75,35.04,14.86c0,14.94-17.11,18.48-35.47,18.48
		c-18.32-0.04-33.53-2.26-35.47-18.48h21.35c2.33,4.05,7.74,5.1,14.12,5.1c6.34,0,14.12-1.05,14.12-5.1c0-2.29-6.34-2.64-14.55-3.03
		c-14.59-0.74-35.08-1.75-35.04-14.82c0-14.94,17.11-18.51,35.47-18.51c18.32,0.12,33.53,2.18,35.47,18.51h-21.35
		c-2.33-4.12-7.74-5.1-14.12-5.1c-6.34,0-14.12,0.93-14.12,5.1C468.54,127.92,474.88,128.23,483.09,128.62z"/>
	<path class="st0" d="M543.95,108.39v52.27h-20.38v-52.27H543.95z"/>
	<path class="st0" d="M601.28,108.47c14.35-0.19,25.01,11.86,24.89,26.14c0.12,14.2-10.54,26.33-24.89,26.14h-46.52v-52.27H601.28z
		 M597.47,125.04h-22.33v19.14h22.33c5.29,0,8.28-4.32,8.28-9.57C605.75,129.32,602.76,125.04,597.47,125.04z"/>
	<path class="st0" d="M632.19,108.47h61.18v13.38h-40.8v6.69h40.8v12.1h-40.8v6.69h40.8v13.42h-61.18V108.47z"/>
</g>
</svg>
